<mxfile host="Electron" agent="Mozilla/5.0 (Macintosh; Intel Mac OS X 10_15_7) AppleWebKit/537.36 (KHTML, like Gecko) draw.io/26.0.16 Chrome/132.0.6834.196 Electron/34.2.0 Safari/537.36" version="26.0.16">
  <diagram name="Page-1" id="AHYJxbk9YULL7Bk-z8VX">
    <mxGraphModel dx="1242" dy="882" grid="1" gridSize="10" guides="1" tooltips="1" connect="1" arrows="1" fold="1" page="1" pageScale="1" pageWidth="827" pageHeight="1169" math="0" shadow="0">
      <root>
        <mxCell id="0" />
        <mxCell id="1" parent="0" />
        <mxCell id="8134mIudAPuQFdkFbRee-2" value="" style="rounded=0;whiteSpace=wrap;html=1;dashed=1;dashPattern=5 5;fillColor=none;strokeColor=#000000;movable=0;resizable=0;rotatable=0;deletable=0;editable=0;locked=1;connectable=0;" parent="1" vertex="1">
          <mxGeometry x="40" y="40" width="760" height="370" as="geometry" />
        </mxCell>
        <mxCell id="8134mIudAPuQFdkFbRee-3" value="Zorgaanbieder" style="text;html=1;strokeColor=none;fillColor=none;align=center;verticalAlign=middle;whiteSpace=wrap;rounded=0;fontSize=20;fontStyle=0;" parent="1" vertex="1">
          <mxGeometry x="360" y="60" width="120" height="30" as="geometry" />
        </mxCell>
        <mxCell id="8134mIudAPuQFdkFbRee-4" value="&lt;div style=&quot;line-height: 100%;&quot;&gt;&lt;font style=&quot;font-size: 14px;&quot;&gt;DVA of Koppeltaal domein&lt;/font&gt;&lt;/div&gt;" style="rounded=1;whiteSpace=wrap;html=1;fillColor=#B3D9FF;strokeColor=#000000;fontSize=18;arcSize=15;" parent="1" vertex="1">
          <mxGeometry x="250" y="140" width="120" height="50" as="geometry" />
        </mxCell>
        <mxCell id="8134mIudAPuQFdkFbRee-5" value="PGO" style="rounded=1;whiteSpace=wrap;html=1;fillColor=#B3D9FF;strokeColor=#000000;fontSize=18;arcSize=15;" parent="1" vertex="1">
          <mxGeometry x="540" y="140" width="120" height="50" as="geometry" />
        </mxCell>
        <mxCell id="8134mIudAPuQFdkFbRee-6" value="Module" style="rounded=0;whiteSpace=wrap;html=1;fillColor=#FFD700;strokeColor=#000000;fontSize=18;" parent="1" vertex="1">
          <mxGeometry x="540" y="290" width="120" height="50" as="geometry" />
        </mxCell>
        <mxCell id="8134mIudAPuQFdkFbRee-7" value="OAuth2" style="edgeStyle=orthogonalEdgeStyle;rounded=0;orthogonalLoop=1;jettySize=auto;html=1;exitX=1;exitY=0.5;exitDx=0;exitDy=0;strokeColor=#000000;fontSize=12;startArrow=classic;startFill=0;endArrow=none;entryX=0;entryY=0.5;entryDx=0;entryDy=0;" parent="1" source="8134mIudAPuQFdkFbRee-4" target="8134mIudAPuQFdkFbRee-5" edge="1">
          <mxGeometry relative="1" as="geometry">
            <mxPoint x="329" y="165" as="sourcePoint" />
            <mxPoint x="389" y="165" as="targetPoint" />
            <mxPoint as="offset" />
          </mxGeometry>
        </mxCell>
        <mxCell id="8134mIudAPuQFdkFbRee-8" value="SMART on FHIR&lt;div&gt;app launch&lt;/div&gt;&lt;div&gt;(Task)&lt;/div&gt;" style="rounded=0;orthogonalLoop=1;jettySize=auto;html=1;exitX=1;exitY=1;exitDx=0;exitDy=0;entryX=0.25;entryY=0;entryDx=0;entryDy=0;strokeColor=#000000;strokeWidth=2;fontSize=11;startArrow=none;startFill=0;endArrow=classic;endFill=1;" parent="1" source="8134mIudAPuQFdkFbRee-4" target="8134mIudAPuQFdkFbRee-6" edge="1">
          <mxGeometry x="0.1798" y="11" relative="1" as="geometry">
            <mxPoint as="offset" />
          </mxGeometry>
        </mxCell>
        <mxCell id="8134mIudAPuQFdkFbRee-9" value="launch" style="rounded=0;orthogonalLoop=1;jettySize=auto;html=1;exitX=0.5;exitY=1;exitDx=0;exitDy=0;strokeColor=#000000;strokeWidth=2;fontSize=11;entryX=0.5;entryY=0;entryDx=0;entryDy=0;" parent="1" source="8134mIudAPuQFdkFbRee-5" target="8134mIudAPuQFdkFbRee-6" edge="1">
          <mxGeometry x="-0.4" relative="1" as="geometry">
            <mxPoint as="offset" />
            <mxPoint x="390" y="280" as="targetPoint" />
          </mxGeometry>
        </mxCell>
        <mxCell id="cy_ahVFa6HVUHWgnelpP-2" style="edgeStyle=orthogonalEdgeStyle;rounded=0;orthogonalLoop=1;jettySize=auto;html=1;entryX=0;entryY=0.5;entryDx=0;entryDy=0;" parent="1" source="cy_ahVFa6HVUHWgnelpP-1" target="8134mIudAPuQFdkFbRee-6" edge="1">
          <mxGeometry relative="1" as="geometry" />
        </mxCell>
        <mxCell id="cy_ahVFa6HVUHWgnelpP-3" value="launch" style="edgeLabel;html=1;align=center;verticalAlign=middle;resizable=0;points=[];" parent="cy_ahVFa6HVUHWgnelpP-2" vertex="1" connectable="0">
          <mxGeometry x="0.0333" y="-2" relative="1" as="geometry">
            <mxPoint y="-2" as="offset" />
          </mxGeometry>
        </mxCell>
        <mxCell id="cy_ahVFa6HVUHWgnelpP-1" value="&lt;div style=&quot;line-height: 100%;&quot;&gt;&lt;font style=&quot;font-size: 12px; line-height: 100%;&quot;&gt;Patient&lt;/font&gt;&lt;div&gt;&lt;font style=&quot;font-size: 12px; line-height: 100%;&quot;&gt;Portaal&lt;/font&gt;&lt;/div&gt;&lt;/div&gt;" style="rounded=0;whiteSpace=wrap;html=1;fillColor=#d5e8d4;strokeColor=#82b366;fontSize=18;verticalAlign=middle;" parent="1" vertex="1">
          <mxGeometry x="320" y="290" width="120" height="50" as="geometry" />
        </mxCell>
        <mxCell id="FcpIPLqm7r6Kxf1jZpRy-1" value="Harmonisatie op het autorisatiemodel en SMART on FHIR app launch wordt de defacto standaard om zowel de module applicatie als de portalen te koppelen." style="text;html=1;align=left;verticalAlign=middle;whiteSpace=wrap;rounded=0;" parent="1" vertex="1">
          <mxGeometry x="40" y="440" width="560" height="30" as="geometry" />
        </mxCell>
        <mxCell id="f7gBogksQmtnomkRgFfb-1" value="&lt;span style=&quot;color: rgb(0, 0, 0); font-family: Helvetica; font-size: 20px; font-style: italic; font-variant-ligatures: normal; font-variant-caps: normal; font-weight: 700; letter-spacing: normal; orphans: 2; text-align: center; text-indent: 0px; text-transform: none; widows: 2; word-spacing: 0px; -webkit-text-stroke-width: 0px; white-space: normal; background-color: rgb(251, 251, 251); text-decoration-thickness: initial; text-decoration-style: initial; text-decoration-color: initial; display: inline !important; float: none;&quot;&gt;Optie 3: Harmonisatie op autorisatie en authenticatie&lt;/span&gt;" style="text;whiteSpace=wrap;html=1;" parent="1" vertex="1">
          <mxGeometry x="40" y="10" width="750" height="70" as="geometry" />
        </mxCell>
        <mxCell id="VYO9Jjl8WV9sqVUqGdIa-3" style="edgeStyle=orthogonalEdgeStyle;rounded=0;orthogonalLoop=1;jettySize=auto;html=1;entryX=0.5;entryY=1;entryDx=0;entryDy=0;" edge="1" parent="1" source="VYO9Jjl8WV9sqVUqGdIa-1" target="8134mIudAPuQFdkFbRee-6">
          <mxGeometry relative="1" as="geometry">
            <Array as="points">
              <mxPoint x="230" y="360" />
              <mxPoint x="600" y="360" />
            </Array>
          </mxGeometry>
        </mxCell>
        <mxCell id="VYO9Jjl8WV9sqVUqGdIa-4" value="launch" style="edgeLabel;html=1;align=center;verticalAlign=middle;resizable=0;points=[];" vertex="1" connectable="0" parent="VYO9Jjl8WV9sqVUqGdIa-3">
          <mxGeometry x="0.039" y="-1" relative="1" as="geometry">
            <mxPoint x="-9" y="-1" as="offset" />
          </mxGeometry>
        </mxCell>
        <mxCell id="VYO9Jjl8WV9sqVUqGdIa-1" value="&lt;div style=&quot;line-height: 100%;&quot;&gt;&lt;font style=&quot;font-size: 12px; line-height: 100%;&quot;&gt;&amp;nbsp;Behandel&lt;/font&gt;&lt;div&gt;&lt;font style=&quot;font-size: 12px; line-height: 100%;&quot;&gt;Portaal&lt;/font&gt;&lt;/div&gt;&lt;/div&gt;" style="rounded=0;whiteSpace=wrap;html=1;fillColor=#d5e8d4;strokeColor=#82b366;fontSize=18;verticalAlign=middle;" vertex="1" parent="1">
          <mxGeometry x="170" y="290" width="120" height="50" as="geometry" />
        </mxCell>
        <mxCell id="8134mIudAPuQFdkFbRee-13" value="Maakt taak" style="shape=callout;whiteSpace=wrap;html=1;perimeter=calloutPerimeter;fillColor=#f5f5f5;strokeColor=#666666;fontColor=#333333;position2=1;base=20;size=30;position=0.75;" parent="1" vertex="1">
          <mxGeometry x="80" y="230" width="120" height="70" as="geometry" />
        </mxCell>
      </root>
    </mxGraphModel>
  </diagram>
</mxfile>
